<svg xmlns="http://www.w3.org/2000/svg" enable-background="new 0 0 50 50" viewBox="0 0 50 50"><path fill="#010101" d="M17.9,22.3h-4.1c-0.6,0-1,0.4-1,1v10.2C9,34,6,37.3,6,41.2c0,4.3,3.5,7.8,7.8,7.8s7.8-3.5,7.8-7.8
		c0-4-3-7.2-6.8-7.7v-9.2h3.1l6.4,6.4c0.2,0.2,0.5,0.3,0.7,0.3s0.5-0.1,0.7-0.3l6.4-6.4h3.1v9.2c-3.8,0.5-6.8,3.8-6.8,7.7
		c0,4.3,3.5,7.8,7.8,7.8s7.8-3.5,7.8-7.8c0-4-3-7.2-6.8-7.7V23.3c0-0.6-0.4-1-1-1h-4.1L26,16.2V13h14.9c0.6,0,1-0.4,1-1V2
		c0-0.6-0.4-1-1-1H9.1c-0.6,0-1,0.4-1,1v10c0,0.6,0.4,1,1,1H24v3.2L17.9,22.3z M19.6,41.2c0,3.2-2.6,5.8-5.8,5.8S8,44.4,8,41.2
		s2.6-5.8,5.8-5.8S19.6,38,19.6,41.2z M42,41.2c0,3.2-2.6,5.8-5.8,5.8s-5.8-2.6-5.8-5.8s2.6-5.8,5.8-5.8S42,38,42,41.2z M10.1,3
		h29.9v8H10.1V3z M25,28.6l-5.3-5.3L25,18l5.3,5.3L25,28.6z"/></svg>